<svg width="46" height="16" viewBox="0 0 46 16" fill="none" xmlns="http://www.w3.org/2000/svg">
<path d="M1 7.20691C0.447715 7.20691 0 7.65462 0 8.20691C0 8.75919 0.447715 9.20691 1 9.20691V7.20691ZM45.7071 8.91402C46.0976 8.52349 46.0976 7.89033 45.7071 7.4998L39.3431 1.13584C38.9526 0.745317 38.3195 0.745317 37.9289 1.13584C37.5384 1.52637 37.5384 2.15953 37.9289 2.55006L43.5858 8.20691L37.9289 13.8638C37.5384 14.2543 37.5384 14.8875 37.9289 15.278C38.3195 15.6685 38.9526 15.6685 39.3431 15.278L45.7071 8.91402ZM1 9.20691H45V7.20691H1V9.20691Z" fill="#D975A3"/>
</svg>
