<svg width="49" height="49" viewBox="0 0 49 49" fill="none" xmlns="http://www.w3.org/2000/svg">
<path fill-rule="evenodd" clip-rule="evenodd" d="M0 0V49H49V0H0Z" fill="#2E42A5"/>
<mask id="mask0_387_159" style="mask-type:luminance" maskUnits="userSpaceOnUse" x="0" y="0" width="49" height="49">
<path fill-rule="evenodd" clip-rule="evenodd" d="M0 0V49H49V0H0Z" fill="white"/>
</mask>
<g mask="url(#mask0_387_159)">
<path d="M-5.45581 45.4986L5.32725 51.5807L49.2435 6.61097L54.9321 -2.42545L43.4018 -4.45691L25.4892 14.9205L11.071 27.9791L-5.45581 45.4986Z" fill="white"/>
<path d="M-3.9812 49.7596L1.51445 53.2876L52.8894 -3.26453H45.1765L-3.9812 49.7596Z" fill="#F50100"/>
<path d="M54.4558 45.4986L43.6727 51.5807L-0.243535 6.61097L-5.93213 -2.42545L5.59818 -4.45691L23.5107 14.9205L37.929 27.9791L54.4558 45.4986Z" fill="white"/>
<path d="M54.0884 48.5571L48.5942 52.0851L26.7188 27.8709L20.2324 25.1677L-6.48022 -2.39478H1.23421L27.93 24.5144L35.0212 27.7566L54.0884 48.5571Z" fill="#F50100"/>
<path fill-rule="evenodd" clip-rule="evenodd" d="M30.2852 -4.08325H18.715V16.3334H-3.01953V32.6667H18.715V53.0834H30.2852V32.6667H52.1055V16.3334H30.2852V-4.08325Z" fill="#F50100"/>
<mask id="mask1_387_159" style="mask-type:luminance" maskUnits="userSpaceOnUse" x="-4" y="-5" width="57" height="59">
<path fill-rule="evenodd" clip-rule="evenodd" d="M30.2852 -4.08325H18.715V16.3334H-3.01953V32.6667H18.715V53.0834H30.2852V32.6667H52.1055V16.3334H30.2852V-4.08325Z" fill="white"/>
</mask>
<g mask="url(#mask1_387_159)">
<path d="M18.715 -4.08329V-8.16663H15.6525V-4.08329H18.715ZM30.2852 -4.08329H33.3477V-8.16663H30.2852V-4.08329ZM18.715 16.3334V20.4167H21.7775V16.3334H18.715ZM-3.01953 16.3334V12.25H-6.08203V16.3334H-3.01953ZM-3.01953 32.6667H-6.08203V36.75H-3.01953V32.6667ZM18.715 32.6667H21.7775V28.5834H18.715V32.6667ZM18.715 53.0834H15.6525V57.1667H18.715V53.0834ZM30.2852 53.0834V57.1667H33.3477V53.0834H30.2852ZM30.2852 32.6667V28.5834H27.2227V32.6667H30.2852ZM52.1055 32.6667V36.75H55.168V32.6667H52.1055ZM52.1055 16.3334H55.168V12.25H52.1055V16.3334ZM30.2852 16.3334H27.2227V20.4167H30.2852V16.3334ZM18.715 4.00543e-05H30.2852V-8.16663H18.715V4.00543e-05ZM21.7775 16.3334V-4.08329H15.6525V16.3334H21.7775ZM-3.01953 20.4167H18.715V12.25H-3.01953V20.4167ZM0.0429688 32.6667V16.3334H-6.08203V32.6667H0.0429688ZM18.715 28.5834H-3.01953V36.75H18.715V28.5834ZM21.7775 53.0834V32.6667H15.6525V53.0834H21.7775ZM30.2852 49H18.715V57.1667H30.2852V49ZM27.2227 32.6667V53.0834H33.3477V32.6667H27.2227ZM52.1055 28.5834H30.2852V36.75H52.1055V28.5834ZM49.043 16.3334V32.6667H55.168V16.3334H49.043ZM30.2852 20.4167H52.1055V12.25H30.2852V20.4167ZM27.2227 -4.08329V16.3334H33.3477V-4.08329H27.2227Z" fill="white"/>
</g>
</g>
</svg>
