<svg width="400" height="396" viewBox="0 0 400 396" fill="none" xmlns="http://www.w3.org/2000/svg">
<path d="M11.9128 33.7805C52.3222 30.3596 89.6201 15.0931 130.326 11.4978C159.116 8.96233 187.067 2.02665 216.051 1.10099C293.887 -1.39424 372.227 1.04733 450.102 1.10099" stroke="#FF7C94" stroke-miterlimit="10"/>
<path d="M11.8618 40.2466C51.8709 36.2489 89.5433 23.3032 129.733 19.4933C159.104 16.7029 187.145 8.51961 216.762 7.55371C294.12 5.01823 372.68 7.79519 450.116 8.39887" stroke="#FF7C94" stroke-miterlimit="10"/>
<path d="M11.7063 45.4251C50.9924 41.5615 89.5298 32.2916 128.79 27.878C159.284 24.4437 187.687 13.6981 218.582 12.6919C252.071 11.5919 284.915 17.7897 318.314 18.1519C362.274 18.6349 406.169 15.375 450.128 15.6969" stroke="#FF7C94" stroke-miterlimit="10"/>
<path d="M11.4744 49.5437C49.8697 46.3643 89.427 41.8031 127.551 36.5846C159.62 32.1978 188.578 17.763 221.28 16.7434C254.86 15.697 286.774 26.0536 320.096 27.4622C363.475 29.3001 406.737 22.9815 450.103 22.9815" stroke="#FF7C94" stroke-miterlimit="10"/>
<path d="M11.1904 52.8168C49.0048 50.7106 88.6137 50.8179 126.118 45.5189C160.189 40.7028 189.715 20.8483 224.727 19.9226C258.552 19.0372 289.15 34.2501 322.407 37.1478C364.934 40.8504 407.615 30.789 450.116 30.2658" stroke="#FF7C94" stroke-miterlimit="10"/>
<path d="M10.8542 55.4864C47.9327 54.762 87.8257 61.2281 124.504 54.6546C160.575 48.2019 191.25 23.1422 228.664 22.4983C262.916 21.908 291.861 42.4468 325.053 47.1421C366.418 53.0046 408.764 38.7576 450.103 37.5636" stroke="#FF7C94" stroke-miterlimit="10"/>
<path d="M10.4934 57.7669C47.1588 58.5853 86.3933 71.8261 122.8 63.8977C160.757 55.6473 193.188 24.8191 232.951 24.6715C267.771 24.5374 294.844 50.6032 327.946 57.3108C367.89 65.4002 410.159 46.7933 450.103 44.8481" stroke="#FF7C94" stroke-miterlimit="10"/>
<path d="M10.1318 59.9001C46.823 62.3685 84.2242 82.5719 121.057 73.2081C160.899 63.0795 195.266 26.8852 237.38 26.7108C272.676 26.5633 298.2 58.8403 330.954 67.5737C369.375 77.8363 411.669 54.8426 450.116 52.1595" stroke="#FF7C94" stroke-miterlimit="10"/>
<path d="M9.75732 62.0867C46.8358 66.2589 81.4097 93.3577 119.314 82.4779C160.795 70.5652 197.525 28.723 241.73 28.7901C277.569 28.8438 301.531 67.0772 333.884 77.7826C370.872 90.0173 413.089 62.8112 450.103 59.4439" stroke="#FF7C94" stroke-miterlimit="10"/>
<path d="M9.42139 64.5819C47.0937 70.3907 78.2593 104.103 117.675 91.6673C160.576 78.1313 199.797 30.8158 245.848 31.178C282.243 31.4597 304.719 75.3946 336.66 87.8574C372.473 101.836 414.315 70.7127 450.116 66.7418" stroke="#FF7C94" stroke-miterlimit="10"/>
<path d="M9.11157 67.587C47.4811 74.8313 75.0317 114.581 116.164 100.696C160.317 85.7915 201.85 33.4318 249.515 34.1026C286.516 34.6258 307.495 83.7256 339.126 97.6908C374.1 113.132 415.258 78.4802 450.116 74.0397" stroke="#FF7C94" stroke-miterlimit="10"/>
<path d="M8.85303 71.3433C47.9197 79.6339 72.0104 124.615 114.834 109.496C136.588 101.823 157.606 86.4086 177.023 74.1605C197.718 61.0941 226.689 37.282 252.536 37.7784C290.273 38.5028 309.599 92.0162 341.139 107.162C375.649 123.73 415.877 86.0867 450.115 81.3243" stroke="#FF7C94" stroke-miterlimit="10"/>
<path d="M8.67236 76.0655C48.4749 84.8659 69.4026 133.993 113.775 118.015C136.123 109.966 157.813 93.5456 177.643 80.6938C198.532 67.1444 228.342 41.8701 254.73 42.4604C293.358 43.3189 310.8 100.226 342.572 116.191C377.03 133.496 416.136 93.4919 450.116 88.6222" stroke="#FF7C94" stroke-miterlimit="10"/>
<path d="M8.56958 81.995C49.1597 90.5808 67.3374 142.538 113.027 126.171C135.749 118.028 157.968 100.763 177.979 87.5623C199.1 73.6373 229.026 47.7459 255.88 48.3496C295.644 49.2618 310.852 108.289 343.283 124.629C378.128 142.189 415.981 100.629 450.103 95.9066" stroke="#FF7C94" stroke-miterlimit="10"/>
<path d="M8.44067 89.199C48.8758 97.7982 67.3118 149.648 112.743 133.161C135.556 124.884 157.865 107.886 178.108 94.7529C199.294 81.0157 229.427 55.2182 256.177 55.5804C296.07 56.1305 310.814 115.855 343.231 132.128C378.464 149.822 415.71 107.739 450.129 103.191" stroke="#FF7C94" stroke-miterlimit="10"/>
<path d="M7.61401 96.926C47.4037 105.726 68.4088 154.504 112.588 138.379C135.491 130.021 157.748 114.285 178.495 101.648C199.836 88.6488 230.782 63.4147 257.093 63.6159C296.083 63.9245 311.291 123.274 342.779 139.439C377.999 157.523 415.619 115.037 450.116 110.502" stroke="#FF7C94" stroke-miterlimit="10"/>
<path d="M6.11621 105.016C45.6606 113.36 69.2348 157.603 112.381 142.457C135.439 134.355 157.851 120.054 179.153 108.182C200.869 96.081 232.693 71.9469 258.707 72.2957C296.792 72.7921 311.497 130.907 342.082 146.978C377.146 165.397 415.619 122.361 450.103 117.8" stroke="#FF7C94" stroke-miterlimit="10"/>
<path d="M4.07617 113.387C43.5689 120.752 69.9318 159.294 112.149 145.623C135.426 138.084 158.135 125.326 180.031 114.473C202.327 103.433 234.99 80.8949 260.85 81.5791C298.07 82.5852 311.471 138.715 341.217 154.692C376.036 173.393 415.735 129.673 450.102 125.085" stroke="#FF7C94" stroke-miterlimit="10"/>
<path d="M1.61133 121.986C41.104 127.969 70.5267 159.978 111.853 148.119C135.401 141.371 158.485 130.276 181.013 120.644C204.02 110.811 237.47 90.2453 263.304 91.4661C299.763 93.1833 311.111 146.858 340.185 162.594C374.875 181.375 415.736 137.038 450.116 132.369" stroke="#FF7C94" stroke-miterlimit="10"/>
<path d="M-1.12598 130.732C38.328 135.052 71.0299 160.018 111.53 150.171C135.388 144.376 158.898 135.039 182.02 126.815C205.84 118.35 239.949 100.038 265.86 101.903C302.499 104.533 309.329 156.356 339.036 170.656C375.469 188.203 414.225 144.658 450.129 139.68" stroke="#FF7C94" stroke-miterlimit="10"/>
<path d="M-4.03101 139.573C33.1895 141.907 68.3185 159.307 105.862 153.055C137.079 147.864 167.689 137.252 198.171 128.76C218.672 123.059 245.874 111.294 267.512 113.896C305.017 118.404 308.541 167.343 340.856 180.436C376.011 194.696 415.529 151.7 450.116 146.978" stroke="#FF7C94" stroke-miterlimit="10"/>
<path d="M-6.97461 148.414C30.6461 149.125 67.7117 159.387 105.345 154.638C136.885 150.654 168.077 142.712 199.203 136.273C220.376 131.9 247.721 122.12 269.552 125.138C305.675 130.129 308.322 175.808 339.423 188.566C374.448 202.933 415.555 159.079 450.103 154.263" stroke="#FF7C94" stroke-miterlimit="10"/>
<path d="M-9.80249 157.214C28.3863 156.396 66.6912 159.75 104.815 156.463C136.652 153.726 168.321 148.467 199.978 144.134C221.835 141.143 249.05 133.429 271.165 136.81C305.881 142.109 308.076 184.461 338.028 196.735C373.041 211.09 415.529 166.471 450.115 161.561" stroke="#FF7C94" stroke-miterlimit="10"/>
<path d="M-12.4097 165.894C26.5021 163.721 65.3364 160.595 104.261 158.757C136.33 157.241 168.348 154.638 200.378 152.412C222.855 150.842 249.683 145.194 272.134 148.843C305.482 154.249 307.78 193.274 336.66 204.892C371.892 219.085 415.336 173.863 450.129 168.859" stroke="#FF7C94" stroke-miterlimit="10"/>
<path d="M-14.6692 174.372C24.9914 171.152 63.8127 162.178 103.68 161.748C135.878 161.413 168.077 161.373 200.275 161.185C223.281 161.051 249.463 157.429 272.276 161.198C304.345 166.511 307.418 202.209 335.369 212.995C371.156 226.799 414.858 181.281 450.116 176.143" stroke="#FF7C94" stroke-miterlimit="10"/>
<path d="M-16.4377 182.609C23.8941 178.772 62.3411 164.794 103.086 165.706C157.658 166.94 217.498 165.196 271.398 173.889C302.28 178.88 306.953 211.318 334.207 221.03C370.989 234.151 414.044 188.713 450.103 183.428" stroke="#FF7C94" stroke-miterlimit="10"/>
<path d="M-17.5864 190.511C21.519 186.862 58.1843 169.315 97.7545 170.576C154.315 172.373 214.09 178.826 270.146 186.674C300.305 190.9 308.206 222.935 336.17 229.683C374.255 238.886 412.947 196.024 450.129 190.725" stroke="#FF7C94" stroke-miterlimit="10"/>
<path d="M-18 198.023C21.4282 195.032 57.3705 174.936 97.3022 177.055C153.63 180.034 210.371 193.395 266.428 199.995C296.108 203.497 307.612 231.951 335.537 237.343C375.236 245.004 411.553 203.483 450.103 198.023" stroke="#FF7C94" stroke-miterlimit="10"/>
<path d="M-17.5486 205.335C21.5956 201.712 58.6869 183.401 98.2959 185.493C153.139 188.378 209.183 199.244 263.664 206.448C293.306 210.365 307.882 238.336 336.13 243.568C375.313 250.826 412.094 211.197 450.115 205.335" stroke="#FF7C94" stroke-miterlimit="10"/>
<path d="M-16.2578 212.646C24.4743 208.796 64.0187 193.221 105.164 195.837C156.211 199.083 208.808 205.107 259.468 212.324C288.968 216.523 306.32 241.288 334.322 247.62C373.957 256.568 411.746 218.683 450.115 212.619" stroke="#FF7C94" stroke-miterlimit="10"/>
<path d="M-14.3071 219.984C26.6057 216.671 67.2345 205.442 108.38 207.065C156.819 208.97 207.234 211.412 255.325 217.623C285.781 221.554 306.812 245.245 336.118 251.148C375.482 259.063 411.863 225.565 450.103 219.917" stroke="#FF7C94" stroke-miterlimit="10"/>
<path d="M-11.8035 227.322C75.3413 222.332 163.532 213.437 250.831 222.64C282.668 225.994 307.43 248.304 338.389 253.737C377.211 260.552 412.211 232.098 450.115 227.201" stroke="#FF7C94" stroke-miterlimit="10"/>
<path d="M-8.91113 234.674C33.0733 233.56 75.0835 233.963 117.055 232.272C159.388 230.569 203.812 224.492 246.068 227.59C279.519 230.045 308.296 249.659 340.972 255.682C378.296 262.551 413.399 238.323 450.116 234.499" stroke="#FF7C94" stroke-miterlimit="10"/>
<path d="M-5.77441 242.025C36.7264 242.388 79.6404 249.699 122.064 245.768C161.221 242.133 201.888 231.307 241.213 232.688C276.407 233.923 309.225 251.523 343.786 257.211C379.986 263.168 414.276 244.427 450.115 241.784" stroke="#FF7C94" stroke-miterlimit="10"/>
<path d="M-2.52051 249.39C40.1223 251.282 84.7405 265.945 127.254 259.519C163.39 254.059 199.772 238.403 236.398 238.135C273.348 237.867 310.194 253.536 346.691 258.607C381.652 263.476 415.297 250.504 450.116 249.082" stroke="#FF7C94" stroke-miterlimit="10"/>
<path d="M0.707031 256.742C44.1632 260.23 92.9514 283.076 136.098 272.357C167.263 264.617 199.139 244.118 231.35 243.206C268.493 242.146 308.373 254.971 345.31 259.599C380.542 264.013 414.884 256.661 450.116 256.393" stroke="#FF7C94" stroke-miterlimit="10"/>
<path d="M3.75366 264.093C47.3777 268.95 97.4052 297.698 140.784 285.652C170.155 277.495 195.963 252.006 226.896 249.927C265.64 247.311 309.083 258.043 347.904 261.598C381.949 264.71 415.994 262.819 450.116 263.664" stroke="#FF7C94" stroke-miterlimit="10"/>
<path d="M6.47803 271.445C49.0305 277.24 102.88 312.965 145.058 298.517C172.544 289.099 193.161 260.766 222.984 257.694C263.213 253.562 309.69 261.92 350.293 264.268C383.589 266.2 416.807 269.218 450.103 270.962" stroke="#FF7C94" stroke-miterlimit="10"/>
<path d="M8.7373 278.783C50.2311 285.128 107.643 326.877 148.724 310.698C174.88 300.395 190.502 270.519 219.795 266.736C261.522 261.343 310.065 266.83 352.372 267.863C385.474 268.668 417.207 275.912 450.103 278.273" stroke="#FF7C94" stroke-miterlimit="10"/>
<path d="M10.4023 286.108C38.0563 290.521 61.6176 301.052 87.5158 311.583C107.191 319.592 130.533 330.794 151.603 321.953C177.01 311.288 188.294 281.359 217.497 277.24C260.85 271.11 310.064 273.055 354.063 272.612C387.462 272.277 417.259 282.942 450.115 285.558" stroke="#FF7C94" stroke-miterlimit="10"/>
<path d="M11.3191 293.419C39.4894 297.766 62.8313 309.034 88.936 320.303C108.005 328.527 132.547 340.587 153.488 332.055C178.715 321.779 186.874 293.406 216.245 289.435C261.328 283.358 309.651 280.876 355.212 278.77C389.14 277.214 417.052 290.414 450.116 292.829" stroke="#FF7C94" stroke-miterlimit="10"/>
<path d="M11.3457 300.703C39.6064 304.956 62.8838 316.359 89.0272 327.722C107.98 335.959 132.832 348.006 153.811 340.037C179.038 330.458 186.81 303.87 216 300.127C261.755 294.264 309.11 289.18 355.187 286C389.489 283.626 416.782 297.859 450.116 300.127" stroke="#FF7C94" stroke-miterlimit="10"/>
<path d="M10.4934 307.988C38.4314 312.321 61.9153 323.228 87.9296 334.121C107.101 342.143 131.528 353.734 152.559 345.993C177.605 336.791 186.965 311.409 215.497 307.425C260.541 301.119 306.966 295.753 352.333 291.89C387.579 288.885 415.826 304.312 450.103 307.425" stroke="#FF7C94" stroke-miterlimit="10"/>
<path d="M8.87939 315.246C51.1737 321.631 107.76 365.647 150.364 351.024C175.319 342.465 186.758 318.962 214.58 314.723C258.501 308.042 303.119 301.616 347.272 296.625C384.015 292.48 414.354 310.322 450.103 314.723" stroke="#FF7C94" stroke-miterlimit="10"/>
<path d="M6.64575 322.503C49.5339 328.513 104.17 368.679 147.368 355.29C172.285 347.577 186.241 326.515 213.301 322.02C255.699 314.991 298.084 307.022 340.584 300.637C378.825 294.881 412.869 316.131 450.116 322.02" stroke="#FF7C94" stroke-miterlimit="10"/>
<path d="M3.94751 329.734C47.5586 335.141 99.8455 370.812 143.792 358.966C168.503 352.299 185.919 334.684 211.765 329.318C252.097 320.934 292.429 312.227 332.864 304.339C372.202 296.666 411.695 321.98 450.116 329.318" stroke="#FF7C94" stroke-miterlimit="10"/>
<path d="M0.92627 336.979C45.2604 341.567 95.1588 372.355 139.79 362.24C164.487 356.645 184.821 341.929 210.048 336.603C248.508 328.487 286.503 317.473 324.705 308.149C364.559 298.41 410.971 328.058 450.116 336.603" stroke="#FF7C94" stroke-miterlimit="10"/>
<path d="M-2.28809 344.209C41.9298 347.697 87.7873 372.086 132.289 365.781C158.123 362.119 181.904 348.234 207.815 343.176C245.978 335.731 282.385 319.27 320.444 311.409C360.337 303.172 410.985 334.617 450.116 343.901" stroke="#FF7C94" stroke-miterlimit="10"/>
<path d="M-5.54102 351.44C38.7672 353.909 83.4112 373.495 127.939 368.652C153.889 365.821 180.071 355.424 205.801 350.313C242.325 343.056 276.782 325.294 313.021 316.654C334.93 311.422 356.129 321.551 377.005 328.728C401.289 337.072 425.225 345.014 450.129 351.212" stroke="#FF7C94" stroke-miterlimit="10"/>
<path d="M-8.70508 358.671C35.487 360.16 79.3692 375.145 123.69 371.643C149.95 369.577 177.991 362.548 203.851 357.504C238.851 350.675 271.849 328.755 306.953 323.335C351.351 316.48 406.414 347.55 450.102 358.496" stroke="#FF7C94" stroke-miterlimit="10"/>
<path d="M-11.6221 365.902C32.2989 366.519 75.768 377.264 119.766 374.943C146.53 373.535 175.784 369.537 202.134 364.748C236.437 358.523 268.597 337.26 302.925 331.894C348.163 324.824 405.459 354.995 450.103 365.781" stroke="#FF7C94" stroke-miterlimit="10"/>
<path d="M-14.1523 373.146C57.8615 373.079 128.843 383.248 200.714 372.1C234.927 366.787 267.319 347.604 301.518 342.787C347.634 336.308 404.478 363.044 450.103 373.066" stroke="#FF7C94" stroke-miterlimit="10"/>
<path d="M-16.1545 380.404C55.4333 379.666 128.854 388.922 200.274 380.363C235.971 376.084 270.778 358.792 306.604 355.666C352.306 351.682 405.071 372.247 450.102 380.363" stroke="#FF7C94" stroke-miterlimit="10"/>
<path d="M-17.4832 387.675C54.6082 386.91 127.5 392.236 199.514 387.675C237.276 385.273 274.755 374.555 312.557 372.891C357.743 370.892 405.201 382.483 450.103 387.675" stroke="#FF7C94" stroke-miterlimit="10"/>
<path d="M-18 394.959C138.034 394.798 294.094 393.457 450.116 394.959" stroke="#FF7C94" stroke-miterlimit="10"/>
</svg>
