<svg width="112" height="90" viewBox="0 0 112 90" fill="none" xmlns="http://www.w3.org/2000/svg">
<path d="M2.19572 77.7623H109.804C111.016 77.7623 112 76.773 112 75.5509C112 74.3288 111.016 73.3346 109.804 73.3346H2.19572C0.983092 73.3346 0 74.3288 0 75.5509C0 76.773 0.983092 77.7623 2.19572 77.7623ZM109.804 85.3181H2.19572C0.983092 85.3181 0 86.3123 0 87.5344C0 88.7565 0.983092 89.7458 2.19572 89.7458H109.804C111.016 89.7458 112 88.7565 112 87.5344C112 86.3123 111.016 85.3181 109.804 85.3181Z" fill="url(#paint0_linear_140_262)"/>
<path d="M107.304 42.4927C97.6487 43.516 89.9446 51.1881 88.7623 60.9069H57.5125C69.7302 59.9612 79.4 47.6382 79.4 32.5703C79.4 18.1814 70.5829 6.29483 59.1496 4.42772H88.6954C89.6963 14.3113 97.5038 22.192 107.304 23.2298V42.4927ZM4.69612 42.4927V23.2298C14.479 22.1969 22.2745 14.3307 23.2951 4.42772H52.8501C41.4167 6.29483 32.5996 18.1814 32.5996 32.5703C32.5996 47.6382 42.2694 59.9612 54.4872 60.9069H23.2446C22.0801 51.2075 14.3654 43.516 4.69612 42.4927ZM63.8312 21.8719C65.6506 23.1571 66.6058 25.0582 66.6963 27.58H61.0465C60.9074 25.2716 59.3295 24.064 56.3133 23.9718C56.1825 23.967 56.0487 23.9621 55.912 23.9621C54.2244 23.8991 52.5874 24.4859 51.6384 25.4801C51.5331 25.5916 51.4359 25.708 51.3483 25.8244C50.0394 28.1959 51.6659 29.5877 54.6878 30.3103C54.8202 30.3443 56.7541 30.8632 57.705 31.0863C59.4258 31.5422 60.9059 31.9883 62.1465 32.4345C63.387 32.8758 64.4009 33.4044 65.1891 34.0106C67.7 36.4694 68.0147 40.2231 66.6193 43.031C66.4648 43.3462 66.2863 43.6421 66.0909 43.9282C64.4245 46.3821 61.264 47.2648 58.9441 47.7012C58.92 47.7061 58.8945 47.7061 58.8704 47.7109V52.0417H53.1071V47.6285C50.8868 47.323 49.0789 46.6925 47.7494 45.7032C45.8207 44.258 44.7558 42.1193 44.5571 39.2725H50.2887C50.3435 42.3181 52.3439 43.8409 56.2926 43.8409C58.049 43.8409 59.3983 43.482 60.34 42.7643C60.5753 42.5848 60.7818 42.3957 60.9579 42.192C61.134 41.9932 61.2818 41.7749 61.3992 41.5519C63.5179 36.1736 55.1522 36.7313 51.9628 35.1843C51.7106 35.1018 51.4594 35.0194 51.2102 34.9321C50.9599 34.8448 50.7121 34.7575 50.4658 34.6653C49.4783 34.2919 48.5953 33.8118 47.8167 33.2201C47.0377 32.6333 46.4135 31.9059 45.9429 31.0475C44.7876 28.0795 45.1129 24.4471 48.0208 22.1581C48.4688 21.8089 48.9668 21.4985 49.5144 21.2221C50.0625 20.9505 50.6602 20.7177 51.3074 20.5237C51.8699 20.354 52.4805 20.2376 53.1071 20.1406V15.7565H58.8704V20.1649C60.9213 20.4461 62.5979 20.999 63.8312 21.8719ZM109.5 -3.05176e-05H2.49993C1.2873 -3.05176e-05 0.303711 0.994164 0.303711 2.21628V63.1231C0.303711 64.3453 1.2873 65.3346 2.49993 65.3346H109.5C110.712 65.3346 111.696 64.3453 111.696 63.1231V2.21628C111.696 0.994164 110.712 -3.05176e-05 109.5 -3.05176e-05Z" fill="url(#paint1_linear_140_262)"/>
<defs>
<linearGradient id="paint0_linear_140_262" x1="124.726" y1="81.7075" x2="-24.3179" y2="81.7075" gradientUnits="userSpaceOnUse">
<stop stop-color="#FF7C94"/>
<stop offset="0.984375" stop-color="#1F52F3"/>
</linearGradient>
<linearGradient id="paint1_linear_140_262" x1="124.353" y1="33.3332" x2="-23.8822" y2="33.3333" gradientUnits="userSpaceOnUse">
<stop stop-color="#FF7C94"/>
<stop offset="0.984375" stop-color="#1F52F3"/>
</linearGradient>
</defs>
</svg>
