<svg width="112" height="90" viewBox="0 0 112 90" fill="none" xmlns="http://www.w3.org/2000/svg">
<path d="M43.7368 89.434C42.2628 88.5905 41.1414 87.2877 40.4778 85.6475L39.8933 84.2035L38.3549 84.2827C35.7148 84.418 33.5471 82.7636 32.355 79.7046C31.6841 77.9831 31.6758 77.9751 30.5112 77.9682C27.4533 77.9497 24.6173 74.6501 24.2423 70.6749C24.1083 69.2546 24.0315 69.1091 23.3091 68.9135C21.2238 68.3486 19.2773 66.2071 18.4866 63.6077C17.8475 61.506 18.0336 58.477 18.9032 56.827L19.5576 55.5852L17.7337 52.7466C15.0883 48.6295 15.2917 48.7186 14.1873 51.1982C13.4092 52.9455 13.059 53.4095 12.1279 53.9268C11.3744 54.3451 10.7573 54.4816 10.2494 54.3415C9.43898 54.118 1.91913 48.5273 1.01945 47.4797C0.722127 47.1332 0.341666 46.2342 0.173772 45.4819C-0.0928603 44.2866 -0.0691925 43.9392 0.360452 42.73C0.631153 41.9684 4.47251 33.2817 8.89751 23.4267C13.3225 13.5717 17.3228 4.62122 17.7874 3.53643C18.252 2.45257 18.9222 1.27862 19.2767 0.928482C20.11 0.105598 21.4275 -0.196243 22.376 0.218918C23.6341 0.769669 30.7183 6.35056 31.3435 7.28304C32.2932 8.70033 32.3775 10.1631 31.6276 12.2203C31.2731 13.1927 30.9827 14.0295 30.9827 14.0788C30.9827 14.3147 35.0029 17.0536 35.7813 17.348C36.2675 17.5328 37.9114 17.922 39.4345 18.2136L42.2041 18.7448L42.5846 17.9935C44.4432 14.3249 48.6082 12.8797 59.3956 12.1618C63.3496 11.899 66.9116 12.3791 72.4854 13.9292C74.9624 14.6174 77.5311 15.1812 78.1938 15.1812C79.1797 15.1812 80.8342 14.7345 81.1974 14.3704C81.2425 14.3249 80.9866 13.5986 80.6286 12.7553C79.8047 10.8095 79.7758 8.98917 80.5472 7.56909C80.9244 6.87345 82.5139 5.45803 85.2823 3.35254C90.021 -0.251968 90.8967 -0.58725 92.3471 0.650787C93.3227 1.48203 93.4432 1.73093 100.175 16.7666C102.714 22.4357 106.366 30.5753 108.291 34.8551C110.217 39.1338 111.863 43.082 111.95 43.6272C112.159 44.9432 111.696 46.6066 110.848 47.5846C109.913 48.6629 102.744 54.0621 101.93 54.3009C100.477 54.7267 98.8166 53.5064 97.8957 51.335C96.9498 49.1041 97.0933 49.0864 94.9558 51.6891C93.8722 53.0085 92.5061 54.4837 91.9204 54.9669C90.8701 55.8334 90.8605 55.8587 91.2259 56.7461C91.4293 57.2414 91.5942 58.4741 91.5912 59.4856C91.5779 63.7234 89.2526 66.9853 85.9376 67.4149L84.6366 67.5835L84.1943 69.4669C83.61 71.957 82.0916 73.9219 80.2092 74.624C79.4763 74.8971 78.6183 75.1207 78.301 75.1207C77.8365 75.1207 77.6709 75.3807 77.4423 76.4684C77.0192 78.4834 76.0252 80.4308 74.9764 81.2983C74.401 81.7747 73.3182 82.2169 72.1496 82.4527C70.2976 82.8264 70.2251 82.8761 68.9167 84.6741C65.5847 89.2533 61.3267 89.8128 53.5156 86.6978L51.5799 85.9261L50.4321 87.4861C49.8005 88.3439 48.8636 89.2664 48.3496 89.5359C47.098 90.193 44.9803 90.1462 43.7368 89.4344V89.434ZM47.9853 84.2384C50.2827 80.6906 51.6923 77.8916 51.6923 76.8783C51.6923 75.371 50.7334 73.7782 49.5006 73.2392C48.5744 72.8336 48.3938 72.8405 47.8353 73.2998C47.1633 73.853 43.796 79.3374 43.3152 80.6616C42.5956 82.6457 44.2814 85.5866 46.1385 85.5866C46.9792 85.5866 47.232 85.4019 47.9853 84.2384ZM63.6432 83.978C64.1743 83.7929 65.0692 83.1189 65.6321 82.4803L66.6557 81.319L61.0782 77.9298C56.1524 74.9363 55.4808 74.4386 55.3262 73.6636C55.1014 72.539 55.645 71.2968 56.5222 70.931C57.0843 70.6964 58.0924 71.2119 63.215 74.3544C68.862 77.8191 69.3435 78.0556 70.7954 78.0741C72.725 78.0988 73.5305 77.5039 73.9498 75.7425C74.2043 74.6802 74.1946 74.387 73.8973 74.041C73.7006 73.8106 70.697 71.5834 67.2245 69.0914C63.752 66.5993 60.7121 64.3456 60.4688 64.083C59.7713 63.3294 59.8963 61.6583 60.7107 60.8544C61.1204 60.4496 61.6026 60.245 61.9155 60.3436C62.2025 60.434 65.5958 62.7968 69.4574 65.5943C75.5962 70.0419 76.6162 70.6808 77.5806 70.6808C78.1871 70.6808 78.9748 70.5414 79.3306 70.3717C80.2322 69.9414 81.0162 68.2359 80.9318 66.8913C80.8638 65.8156 80.7381 65.7039 73.2612 60.0726C69.0802 56.9243 65.4716 54.1521 65.2423 53.9127C64.601 53.2426 64.6898 51.1732 65.3865 50.5601C65.6957 50.2887 66.1469 50.0663 66.3902 50.0663C66.6328 50.0663 70.7162 52.9923 75.4638 56.568C83.2431 62.4278 84.2061 63.0693 85.2194 63.0693C86.1609 63.0693 86.4827 62.8944 87.2023 61.991C87.8835 61.1355 88.061 60.6585 88.061 59.683C88.061 57.615 87.371 56.7186 81.2417 50.8257C73.1496 43.0448 67.1882 38.1698 58.8335 32.5016L55.2404 30.0636L53.4668 30.7397C52.4913 31.1122 51.6923 31.5338 51.6923 31.6768C51.6923 32.288 47.7201 37.1686 46.1683 38.4633C43.8677 40.3849 41.1414 41.504 38.7634 41.504C35.5174 41.504 34.1128 39.8871 34.1743 36.2213C34.2162 33.7201 34.8275 32.0474 37.6014 26.8417L39.7527 22.8044L38.8403 22.6075C34.3872 21.6481 33.5691 21.2924 30.6632 19.0588C29.8622 18.443 29.1628 17.9963 29.1085 18.0659C28.8765 18.365 17.092 44.7361 17.092 44.9562C17.092 45.09 17.3881 45.5451 17.7499 45.9676C18.1118 46.3902 19.1543 47.9152 20.0664 49.3567L21.7247 51.9775L22.2532 51.3542C23.7543 49.5833 26.5337 49.2396 28.6488 50.5633C29.8528 51.3169 31.2358 52.9063 31.5703 53.9207C31.6804 54.2545 31.7705 54.2301 31.9835 53.8096C33.3073 51.1928 34.8296 50.0663 37.0421 50.0663C38.8963 50.0663 39.9321 50.5709 41.3281 52.1545C42.623 53.6238 43.3389 55.3211 43.5334 57.3824C43.6553 58.6737 43.7692 58.9465 44.1863 58.9465C45.088 58.9465 46.9342 60.3335 47.9373 61.7647C48.9838 63.2576 49.6719 65.5599 49.6719 67.5668C49.6719 68.4459 49.7786 68.7779 50.0608 68.7779C50.7086 68.7779 52.3411 69.9584 53.2205 71.0627C55.3218 73.701 55.8432 78.0412 54.3913 80.7973L53.7005 82.1077L54.2752 82.3805C54.9106 82.6827 58.7817 83.8927 59.7743 84.0998C61.025 84.3607 62.6973 84.3077 63.6432 83.978ZM42.8608 73.6934C46.0218 68.266 46.179 67.9246 46.0547 66.7604C45.819 64.5487 43.848 62.7896 42.3477 63.4513C41.7349 63.7219 35.662 73.7326 35.1947 75.2425C34.7108 76.8069 35.941 79.3171 37.4532 79.8496C38.803 80.3253 39.3834 79.6646 42.8608 73.6934ZM31.7766 73.1387C31.9884 72.9206 33.5641 70.3161 35.278 67.3506C36.9918 64.3855 38.7721 61.3983 39.2343 60.713C40.2302 59.2363 40.3357 57.8072 39.5649 56.2407C38.8758 54.8407 37.2746 54.0139 36.3466 54.5792C35.9671 54.8106 33.9833 57.8831 31.6923 61.789C27.4062 69.0956 27.1962 69.6718 28.1094 71.6128C28.8964 73.2856 30.8454 74.0968 31.7766 73.1387ZM25.7308 64.2585C26.586 63.4132 28.9623 58.8293 28.9615 58.0272C28.9603 56.9888 28.1684 55.3334 27.3519 54.6614C26.9734 54.3502 26.3476 54.1873 25.7614 54.2479C24.8774 54.3394 24.6606 54.5719 23.2167 56.9787C21.8816 59.2037 21.638 59.8088 21.638 60.9012C21.638 61.9784 21.8007 62.3967 22.6186 63.4237C23.3761 64.375 23.796 64.6551 24.4645 64.6551C24.9407 64.6551 25.5104 64.4766 25.7308 64.2585ZM89.7622 51.4144C90.3235 50.9344 91.7791 49.352 92.998 47.8967C95.2124 45.2544 95.2139 45.2516 94.8204 44.4082C94.6037 43.9448 91.9011 37.9283 88.8147 31.0379C85.7283 24.1483 83.1847 18.4829 83.1625 18.4495C83.1403 18.4151 82.2802 18.665 81.2514 19.004C78.8853 19.7841 77.1598 19.7739 74.2967 18.9631C65.459 16.4601 63.766 16.2316 57.8039 16.7387C52.9846 17.1483 48.5758 17.9777 47.1252 18.7476C46.387 19.1386 45.587 20.3627 42.7972 25.3706C38.5817 32.9372 37.8918 34.3545 37.6612 35.9203L37.4792 37.1547L39.2843 36.9931C42.4789 36.7061 45.7101 34.0628 48.5674 29.4005C49.6843 27.5773 49.7135 27.555 52.5238 26.4303L55.3543 25.2963L58.1331 27.0489C66.831 32.5369 76.6524 40.5344 85.4088 49.2573C87.0759 50.9182 88.5078 52.279 88.5906 52.2815C88.6742 52.2841 89.2015 51.894 89.7622 51.4144ZM11.7474 47.6088C12.2926 46.4311 13.8197 43.0421 15.1407 40.0765C16.4616 37.111 19.9982 29.2026 22.9997 22.5007C26.0012 15.7997 28.4573 10.2318 28.4573 10.1278C28.4573 10.0238 26.879 8.70868 24.9501 7.20596L21.4433 4.47263L15.3034 18.1514C5.87113 39.1654 3.70634 44.0451 3.70863 44.2903C3.71041 44.516 10.2393 49.6821 10.5776 49.726C10.6755 49.7387 11.2019 48.7864 11.7474 47.6088ZM104.995 47.1323C106.918 45.6936 108.47 44.4361 108.442 44.3377C108.168 43.369 90.6586 4.71503 90.4936 4.71503C90.3213 4.71503 85.6869 8.19972 83.8067 9.74332C83.4746 10.0164 84.2209 11.7374 98.7241 44.1203C100.111 47.2159 101.302 49.7493 101.371 49.7493C101.441 49.7493 103.072 48.5719 104.995 47.1323Z" fill="url(#paint0_linear_387_183)"/>
<defs>
<linearGradient id="paint0_linear_387_183" x1="124.726" y1="45.9174" x2="-24.3179" y2="45.9174" gradientUnits="userSpaceOnUse">
<stop stop-color="#FF7C94"/>
<stop offset="0.984375" stop-color="#1F52F3"/>
</linearGradient>
</defs>
</svg>
